# xmcd CD database file
#
# Track frame offsets:
#	150
#	24925
#	38850
#	52555
#
# Disc length: 901 seconds
#
# Revision: 0
# Processed by: cddbd v1.5.2PL0 Copyright (c) Steve Scherf et al.
# Submitted via: CDex 1.70beta2
#
DISCID=1f038304
DTITLE=World Standard - Double Happiness
DYEAR=1986
DGENRE=New Age
TTITLE0=Pasio
TTITLE1=La Pagaj'
TTITLE2=March Of Mars
TTITLE3=China Bees
EXTD=YEAR: 1986
EXTT0=
EXTT1=
EXTT2=
EXTT3=
PLAYORDER=
